<?xml version="1.0" encoding="UTF-8"?>
<svg id="Layer_1" data-name="Layer 1" xmlns="http://www.w3.org/2000/svg" viewBox="0 0 291.28 359.39">
  <defs>
    <style>
      .cls-1 {
        fill: #090909;
      }

      .cls-2 {
        fill: #0a3d39;
      }

      .cls-3 {
        fill: #080808;
      }

      .cls-4 {
        fill: #0b3d39;
      }

      .cls-5 {
        fill: #f3f3f3;
      }

      .cls-6 {
        fill: #070707;
      }
    </style>
  </defs>
  <path class="cls-4" d="M59.12,0c18.36,.54,35.72,5.61,51.28,16.38,10.36,7.17,18.95,16.12,26.32,26.29,1.36,1.87,2.69,3.83,3.19,6.12,1.14,5.21-.13,6.47-4.61,7.61-1.48,.37-2.97,.26-4.47-.27C96.66,43.96,62.47,31.82,28.28,19.69c-1.81-.64-3.58-1.36-5.18-2.44-.8-.53-1.57-1.11-2.16-1.88-2.15-2.82-1.33-6.52,1.83-8.09,4.11-2.03,8.55-3.03,12.95-4.17,7.53-1.95,15.21-2.79,23.4-3.11Z"/>
  <path class="cls-2" d="M228.87,.15c14.07,.05,25.06,2.28,35.81,5.86,1.16,.39,2.18,1,3.19,1.63,3.18,1.95,3.59,5.7,.91,8.34-1.8,1.78-4.09,2.76-6.43,3.6-5.18,1.86-10.37,3.71-15.56,5.55-27.44,9.75-54.89,19.49-82.33,29.23-1.65,.59-3.33,1.12-4.97,1.75-1.23,.48-2.48,.65-3.76,.41-5.28-.99-6.67-2.58-5.06-8.4,.51-1.85,1.64-3.46,2.75-5.02,9.78-13.66,21.76-24.78,36.71-32.69C203.15,3.52,217.03,.62,228.87,.15Z"/>
  <path class="cls-4" d="M73.13,60.08c16.47,.29,30.88,3.08,44.68,8.84,1.25,.52,2.49,1.08,3.61,1.85,2.08,1.42,2.8,3.4,2.43,5.83-.34,2.27-1.63,3.77-3.82,4.47-3.13,1-6.41,1.27-9.63,1.83-8.49,1.46-16.99,2.86-25.49,4.28-10.62,1.77-21.24,3.55-31.86,5.3-11.26,1.86-22.51,3.72-33.77,5.55-3.78,.61-7.57,1.16-11.37,1.63-1.17,.15-2.41,.08-3.58-.1-2.06-.33-3.64-1.57-4.1-3.56-.54-2.32-.22-4.63,1.72-6.39,3.38-3.06,6.89-5.95,10.54-8.69,10.18-7.64,21.16-13.67,33.55-16.96,9.39-2.49,18.95-3.66,27.08-3.89Z"/>
  <path class="cls-4" d="M285.21,99.62c-6.38-.44-12.68-1.46-18.98-2.51-13.14-2.18-26.28-4.35-39.42-6.54-13.93-2.32-27.85-4.66-41.77-6.99-4.01-.67-8.02-1.36-12.03-2.03-.95-.16-1.86-.44-2.72-.88-3.28-1.7-4.04-6.31-1.49-9,1.24-1.31,2.86-2,4.48-2.69,8.64-3.65,17.62-6.13,26.88-7.53,20.33-3.08,39.91-.33,58.73,7.9,10.47,4.58,19.83,10.91,28.39,18.47,1.02,.9,2,1.84,2.78,2.96,1.4,2.01,1.66,4.13,.43,6.3-1.15,2.04-3.04,2.7-5.28,2.53Z"/>
  <path class="cls-4" d="M252.54,186.78c-.35,2.26-1.46,4.25-3.56,5.46-1.94,1.12-4,.92-5.88-.36-.93-.63-1.67-1.47-2.33-2.38-19.18-26.23-38.36-52.47-57.54-78.7-.94-1.29-1.9-2.57-2.73-3.93-1.34-2.2-1.64-4.5-.15-6.76,1.55-2.34,3.81-3,6.49-2.51,10.63,1.95,20.24,6.25,28.78,12.85,11.23,8.68,19.37,19.79,25.3,32.61,4.99,10.8,8.03,22.18,10.05,33.85,.56,3.22,1.04,6.46,1.58,9.87Z"/>
  <path class="cls-4" d="M110.85,103.13c-.16,1.95-.82,3.69-1.97,5.31-6.82,9.66-13.83,19.18-20.82,28.72-12.52,17.07-25.02,34.16-37.53,51.24-.71,.97-1.3,2.02-2.17,2.85-2.63,2.52-5.89,2.28-8.05-.64-.71-.96-1.24-2.05-1.88-3.06-.32-.51-.36-1.03-.27-1.61,2.39-14.94,5.51-29.67,11.86-43.53,7.08-15.47,17.71-27.78,32.36-36.57,5.62-3.37,11.77-5.27,18-7,.84-.24,1.72-.39,2.55-.65,2.58-.83,4.68,.2,6.64,1.72,1.04,.8,1.29,1.97,1.28,3.22Z"/>
  <path class="cls-6" d="M130.92,86.27c9.13-.18,17.9-.35,26.66,.43,.64,.06,1.27,.08,1.79,.55,.96,.88,.59,2.48-.76,2.81-1.23,.3-2.52,.37-3.79,.49-2.07,.19-4.14,.32-6.2,.52-1.76,.17-2.14,.5-2.19,2.18-.08,2.71-.1,5.43,0,8.14,.09,2.41,1.04,3.45,3.4,3.94,2.73,.57,5.47,1.08,8.22,1.55,.85,.14,1.2,.44,1.27,1.35,.28,3.92,.32,3.98-3.61,3.98-7.5,0-15.01,.24-22.5-.36-.4-.03-.8-.05-1.19-.09-1.09-.12-1.84-.66-1.84-1.81,0-1.17,.78-1.62,1.88-1.73,2.54-.25,5.07-.56,7.61-.83,2.44-.26,2.9-.7,2.93-3.11,.03-2.4,.03-4.79,0-7.19-.04-2.72-.97-3.94-3.65-4.51-2.1-.45-4.24-.8-6.37-1.04-1.3-.15-1.82-.66-1.69-1.98,.1-1.02,.02-2.06,.02-3.3Z"/>
  <path class="cls-3" d="M138.16,213.44c.09,1-.54,1.48-.88,2.07-2.22,3.84-3.28,7.93-2.87,12.39,.46,4.95,3.44,7.82,8.38,8.12,5.33,.32,9.02-2.08,11.44-6.68,1.09-2.07,1.69-4.29,1.83-6.64,.06-1.05-.13-1.59-1.34-1.7-2.3-.21-4.59-.6-6.88-.92-.63-.09-1.26-.23-1.89-.32-.89-.13-1.47-.57-1.57-1.51-.11-1.04,.4-1.65,1.36-1.96,2.29-.75,4.67-1.01,7.03-1.38,.79-.12,1.59-.17,2.38-.23,2.82-.21,3.83,.54,4.18,3.33,.49,3.92,.32,7.8-.82,11.62-.76,2.54-1.74,4.98-3.28,7.15-2.27,3.19-5.22,5.4-9.19,5.92-5.23,.68-9.16-1.5-12-5.79-2.37-3.58-3.11-7.66-3.3-11.85-.15-3.2,.22-6.39,.92-9.51,.45-2.02,.5-2.03,2.49-2.07,1.33-.03,2.66,0,4,0Z"/>
  <path class="cls-6" d="M158.24,322.35c-9.16-4.34-17.97-8.79-26.59-13.62-2.4-1.35-2.35-3.39,.1-4.74,7.88-4.34,15.89-8.44,24.22-11.87,.59-.24,1.21-.39,1.8-.63,.68-.27,1.27-.16,1.71,.41,.49,.64,.46,1.33,.02,2-.4,.61-.99,1.03-1.56,1.46-1.41,1.05-2.81,2.11-4.22,3.15-1.59,1.18-2.37,2.79-2.44,4.72-.08,1.99-.05,3.99,0,5.98,.04,1.79,.79,3.21,2.33,4.2,1.67,1.08,3.3,2.24,4.99,3.3,.8,.5,1.1,1.04,.78,1.96-.39,1.12-.7,2.27-1.13,3.67Zm-20.92-15.57c2.71,1.34,4.96,2.51,7.27,3.56,2.06,.93,3,.4,3.17-1.87,.15-2.04,.03-4.11,.03-6.44-3.6,1.32-6.83,2.92-10.46,4.74Z"/>
  <path class="cls-6" d="M158.1,198.74c-9.03-4.29-17.79-8.7-26.34-13.51-2.47-1.39-2.53-3.41-.1-4.74,8.12-4.44,16.33-8.71,24.95-12.15,.37-.15,.74-.3,1.13-.4,.74-.2,1.44-.2,1.87,.59,.39,.72,.31,1.41-.23,1.99-.49,.52-1.04,.99-1.61,1.42-1.33,1.03-2.67,2.03-4.02,3.02-1.6,1.17-2.38,2.79-2.45,4.72-.08,2-.05,4-.01,6,.04,1.79,.79,3.21,2.33,4.21,1.68,1.08,3.3,2.26,5,3.3,.83,.51,1.08,1.08,.75,1.96-.42,1.11-.53,2.32-1.25,3.59Zm-20.78-15.52c2.69,1.33,4.9,2.51,7.18,3.54,2.16,.98,3.12,.4,3.26-2.01,.12-2.02,.03-4.06,.03-6.3-3.57,1.37-6.76,2.93-10.47,4.77Z"/>
  <path class="cls-1" d="M137.44,129.61c-.86,1.77-1.63,3.24-2.3,4.76-.91,2.07-1.35,4.23-1.26,6.52,.1,2.6,1.37,4.35,3.7,5.37,8.15,3.57,17.56-1.59,18.91-10.36,.13-.87,.25-1.74,.35-2.61,.08-.61,.29-1.11,.98-1.12,.65-.01,1,.42,1.16,1.01,.12,.46,.29,.92,.34,1.39,.29,3.38-.02,6.65-1.23,9.87-3.2,8.52-13.05,10.62-18.78,8.75-3.58-1.17-5.91-3.63-7.35-7.04-1.64-3.89-1.6-7.94-1.16-12.01,.16-1.49-.1-3.43,1-4.32,1.08-.88,2.92-.2,4.42-.28,.31-.02,.63,.03,1.22,.07Z"/>
  <path class="cls-6" d="M159.14,342.06c.29,3.63,.29,3.61-2.93,3.9-6.04,.56-12.09,1.1-18.13,1.72-2.18,.22-2.76,.8-3.12,2.92-.37,2.2-.64,4.43-.95,6.64-.06,.39-.09,.8-.23,1.17-.2,.55-.57,.94-1.22,.97-.81,.04-1.15-.5-1.33-1.14-.15-.53-.18-1.1-.2-1.66-.22-8.31-.21-16.62,0-24.93,.01-.56,.05-1.12,.18-1.66,.16-.65,.53-1.22,1.28-1.22,.73,0,1.2,.51,1.33,1.17,.24,1.17,.39,2.36,.56,3.55,.19,1.34,.32,2.7,.55,4.04,.37,2.19,1.05,2.85,3.32,3.03,4.62,.36,9.24,.65,13.86,.98,2.31,.16,4.61,.34,7.01,.51Z"/>
  <path class="cls-3" d="M146.04,274.82c-3.52-.11-8.62-.5-13.71-.95-1.45-.13-2.1-.76-2.09-1.82,0-1.05,.69-1.7,2.05-1.93,.24-.04,.48-.04,.72-.05,2.95-.18,5.9-.34,8.85-.55,2.39-.17,4.79-.27,7.16-.61,3.92-.57,4.87-1.7,5.09-5.62,.14-2.63,.3-5.27,.45-7.9,.1-1.7,.1-1.71,1.76-1.69,1.53,.01,1.61-.16,1.72,1.75,.22,3.99,.59,7.97,.79,11.96,.08,1.59,.41,2.98,1.61,4.1,.67,.63,1.18,1.39,.74,2.34-.44,.95-1.4,.96-2.28,.97-3.76,.01-7.51,0-12.86,0Z"/>
  <path class="cls-5" d="M137.32,306.78c3.63-1.82,6.87-3.43,10.46-4.74,0,2.33,.12,4.4-.03,6.44-.16,2.27-1.11,2.8-3.17,1.87-2.31-1.05-4.56-2.23-7.27-3.56Z"/>
  <path class="cls-5" d="M137.32,183.22c3.72-1.83,6.9-3.4,10.47-4.77,0,2.24,.1,4.28-.03,6.3-.15,2.41-1.1,2.98-3.26,2.01-2.28-1.03-4.5-2.21-7.18-3.54Z"/>
</svg>